<mxfile host="app.diagrams.net" modified="2023-07-19T04:17:06.914Z" agent="Mozilla/5.0 (Windows NT 10.0; Win64; x64) AppleWebKit/537.36 (KHTML, like Gecko) Chrome/114.0.0.0 Safari/537.36 Edg/114.0.1823.82" etag="3H9724HzxKMyt9UIpLMX" version="21.6.3" type="device">
  <diagram name="Page-1" id="YgEF8Rc6YDN5Ng1QnEPJ">
    <mxGraphModel dx="723" dy="426" grid="1" gridSize="10" guides="1" tooltips="1" connect="1" arrows="1" fold="1" page="1" pageScale="1" pageWidth="850" pageHeight="1100" math="0" shadow="0">
      <root>
        <mxCell id="0" />
        <mxCell id="1" parent="0" />
        <mxCell id="dZJAuWM4ClLpMtlekzl2-5" style="edgeStyle=orthogonalEdgeStyle;rounded=0;orthogonalLoop=1;jettySize=auto;html=1;exitX=1;exitY=0.75;exitDx=0;exitDy=0;entryX=0.107;entryY=0.014;entryDx=0;entryDy=0;entryPerimeter=0;" parent="1" source="dZJAuWM4ClLpMtlekzl2-1" target="dZJAuWM4ClLpMtlekzl2-4" edge="1">
          <mxGeometry relative="1" as="geometry" />
        </mxCell>
        <mxCell id="dZJAuWM4ClLpMtlekzl2-9" value="consultar planes de entrenamiento,&amp;nbsp;&lt;br&gt;&amp;nbsp;actualizar datos, entrenar con &lt;br&gt;inteligencia artificial" style="edgeLabel;html=1;align=center;verticalAlign=middle;resizable=0;points=[];fontSize=10;" parent="dZJAuWM4ClLpMtlekzl2-5" vertex="1" connectable="0">
          <mxGeometry x="-0.4615" y="1" relative="1" as="geometry">
            <mxPoint x="35" as="offset" />
          </mxGeometry>
        </mxCell>
        <mxCell id="dZJAuWM4ClLpMtlekzl2-1" value="&lt;font style=&quot;font-size: 11px;&quot;&gt;Esgrimista&lt;/font&gt;&lt;br&gt;&lt;font style=&quot;font-size: 9px;&quot;&gt;[persona]&lt;/font&gt;" style="shape=actor;whiteSpace=wrap;html=1;fontSize=9;spacingTop=27;" parent="1" vertex="1">
          <mxGeometry x="60" y="100" width="60" height="70" as="geometry" />
        </mxCell>
        <mxCell id="dZJAuWM4ClLpMtlekzl2-6" style="edgeStyle=orthogonalEdgeStyle;rounded=0;orthogonalLoop=1;jettySize=auto;html=1;exitX=0;exitY=0.75;exitDx=0;exitDy=0;entryX=0.5;entryY=0;entryDx=0;entryDy=0;" parent="1" source="dZJAuWM4ClLpMtlekzl2-2" target="dZJAuWM4ClLpMtlekzl2-4" edge="1">
          <mxGeometry relative="1" as="geometry" />
        </mxCell>
        <mxCell id="dZJAuWM4ClLpMtlekzl2-10" value="&lt;span style=&quot;font-size: 10px;&quot;&gt;gestionar y visualizar datos &lt;br&gt;de alumnos y entrenadores&amp;nbsp;&lt;br&gt;&lt;/span&gt;" style="edgeLabel;html=1;align=center;verticalAlign=middle;resizable=0;points=[];" parent="dZJAuWM4ClLpMtlekzl2-6" vertex="1" connectable="0">
          <mxGeometry x="-0.2316" y="-2" relative="1" as="geometry">
            <mxPoint x="7" as="offset" />
          </mxGeometry>
        </mxCell>
        <mxCell id="dZJAuWM4ClLpMtlekzl2-2" value="&lt;font style=&quot;font-size: 11px;&quot;&gt;Admin&lt;/font&gt;&lt;br&gt;&lt;font style=&quot;font-size: 9px;&quot;&gt;[persona]&lt;/font&gt;" style="shape=actor;whiteSpace=wrap;html=1;fontSize=9;spacingTop=27;" parent="1" vertex="1">
          <mxGeometry x="640" y="100" width="60" height="70" as="geometry" />
        </mxCell>
        <mxCell id="dZJAuWM4ClLpMtlekzl2-7" style="edgeStyle=orthogonalEdgeStyle;rounded=0;orthogonalLoop=1;jettySize=auto;html=1;exitX=1;exitY=0.75;exitDx=0;exitDy=0;" parent="1" source="dZJAuWM4ClLpMtlekzl2-3" target="dZJAuWM4ClLpMtlekzl2-4" edge="1">
          <mxGeometry relative="1" as="geometry" />
        </mxCell>
        <mxCell id="dZJAuWM4ClLpMtlekzl2-8" value="gestionar planes de entrenamiento, &lt;br&gt;ver datos de alumnos, establecer &lt;br&gt;objetivos, dar retroalimentaciones,&lt;br&gt;visualizar resutlados de entrenamiento con AI" style="edgeLabel;html=1;align=center;verticalAlign=middle;resizable=0;points=[];fontSize=10;" parent="dZJAuWM4ClLpMtlekzl2-7" vertex="1" connectable="0">
          <mxGeometry x="-0.2667" relative="1" as="geometry">
            <mxPoint x="29" as="offset" />
          </mxGeometry>
        </mxCell>
        <mxCell id="dZJAuWM4ClLpMtlekzl2-12" style="edgeStyle=orthogonalEdgeStyle;rounded=0;orthogonalLoop=1;jettySize=auto;html=1;exitX=0.5;exitY=1;exitDx=0;exitDy=0;entryX=0;entryY=0.5;entryDx=0;entryDy=0;" parent="1" source="dZJAuWM4ClLpMtlekzl2-3" target="dZJAuWM4ClLpMtlekzl2-11" edge="1">
          <mxGeometry relative="1" as="geometry" />
        </mxCell>
        <mxCell id="dZJAuWM4ClLpMtlekzl2-13" value="&lt;span style=&quot;font-size: 10px;&quot;&gt;pausar, continuar, y &lt;br&gt;editar temporizador;&lt;br&gt;editar puntajes; controlar&lt;br&gt;penalizaciones a esgrimistas;&lt;br&gt;resolver empates &lt;br&gt;según reglamentos&lt;br&gt;&lt;/span&gt;" style="edgeLabel;html=1;align=center;verticalAlign=middle;resizable=0;points=[];" parent="dZJAuWM4ClLpMtlekzl2-12" vertex="1" connectable="0">
          <mxGeometry x="-0.6048" y="1" relative="1" as="geometry">
            <mxPoint x="4" y="23" as="offset" />
          </mxGeometry>
        </mxCell>
        <mxCell id="dZJAuWM4ClLpMtlekzl2-3" value="&lt;font style=&quot;font-size: 11px;&quot;&gt;Entrenador&lt;br&gt;&lt;/font&gt;&lt;font style=&quot;font-size: 9px;&quot;&gt;[persona]&lt;/font&gt;" style="shape=actor;whiteSpace=wrap;html=1;fontSize=9;spacingTop=27;" parent="1" vertex="1">
          <mxGeometry x="30" y="250" width="60" height="70" as="geometry" />
        </mxCell>
        <mxCell id="dZJAuWM4ClLpMtlekzl2-4" value="&lt;font style=&quot;font-size: 14px;&quot;&gt;Aplicación web&lt;/font&gt;&lt;br&gt;&lt;font style=&quot;&quot;&gt;&lt;font style=&quot;font-size: 9px;&quot;&gt;[Sistema de software]&lt;/font&gt;&lt;br&gt;&lt;br&gt;&lt;span style=&quot;font-size: 10px;&quot;&gt;Aplicación web que permite gestionar planes de entrenamiento, objetivos, retroalimentaciones, alumnos, datos de los deportistas, entrenadores, realizar entrenamientos con inteligencia artificial&lt;/span&gt;&lt;br&gt;&lt;/font&gt;" style="whiteSpace=wrap;html=1;verticalAlign=top;" parent="1" vertex="1">
          <mxGeometry x="350" y="230" width="190" height="130" as="geometry" />
        </mxCell>
        <mxCell id="dZJAuWM4ClLpMtlekzl2-11" value="&lt;font style=&quot;font-size: 14px;&quot;&gt;Máquina de puntaje&lt;/font&gt;&lt;br&gt;&lt;font style=&quot;&quot;&gt;&lt;font style=&quot;font-size: 9px;&quot;&gt;[Hardware y software]&lt;/font&gt;&lt;br&gt;&lt;br&gt;&lt;span style=&quot;font-size: 10px;&quot;&gt;Máquina y control remoto para controlar puntaje, penalizaciones, prioridad (para empates), y tiempo durante un combate entre esgrimistas&lt;/span&gt;&lt;br&gt;&lt;/font&gt;" style="whiteSpace=wrap;html=1;verticalAlign=top;" parent="1" vertex="1">
          <mxGeometry x="150" y="410" width="190" height="120" as="geometry" />
        </mxCell>
      </root>
    </mxGraphModel>
  </diagram>
</mxfile>
